<svg viewBox="0 0 24 24" fill="none" width="32" height="32" xmlns="http://www.w3.org/2000/svg" xmlns:xlink="http://www.w3.org/1999/xlink">
    <style>
        :root, .palette0 {color: currentColor;
            --color0: #fff;
        }
    </style>
    <path fill="currentColor" d="M13.75 2a2.25 2.25 0 0 1 2.245 2.096L16 4.25c0-0.085-5e-3-0.168-0.014-0.25h1.764A2.25 2.25 0 0 1 20 6.25v13.5A2.25 2.25 0 0 1 17.75 22H6.25A2.25 2.25 0 0 1 4 19.75V6.25A2.25 2.25 0 0 1 6.25 4h1.764c-7e-3 0.058-0.01 0.117-0.013 0.176L8 4.25A2.25 2.25 0 0 1 10.25 2zM13.75 6.5h-3.5a2.248 2.248 0 0 1-1.892-1.033L8.379 5.5H6.25A0.75 0.75 0 0 0 5.5 6.25v13.5c0 0.414 0.336 0.75 0.75 0.75h11.5a0.75 0.75 0 0 0 0.75-0.75V6.25a0.75 0.75 0 0 0-0.75-0.75h-2.129l0.021-0.033A2.248 2.248 0 0 1 13.75 6.5zM13.75 3.5h-3.5a0.75 0.75 0 0 0 0 1.5h3.5a0.75 0.75 0 0 0 0-1.5z" />
</svg>